<svg xmlns="http://www.w3.org/2000/svg" width="34" height="30">
    <path fill="#E7DEB0" fill-opacity="0" fill-rule="evenodd" d="M0 0h34v30H0V0z"/>
    <path fill="#646152" fill-rule="evenodd" d="M28.569 22.695h-8.045l-2.762 6.701s-.19.581-.651.581c-.46 0-.65-.581-.65-.581l-2.762-6.701h-8.12c-2.319 0-4.198-1.935-4.198-4.323V4.321c0-2.387 1.879-4.324 4.198-4.324h22.99c2.319 0 4.199 1.937 4.199 4.324v14.051c0 2.388-1.88 4.323-4.199 4.323zM8.808 9.149s-1.277-.012-1.719.763v-3.05s-1.762.023-1.878.004v7.976h1.878v-.463s.563.681 1.561.681c0 0 2.579-.074 2.592-2.642 0 0 .347-3.001-2.434-3.269zm3.016-2.546v1.906s.886.205.886.94v5.407h1.838V9.395s.212-2.67-2.724-2.792zm7.082 2.618c-1.702 0-3.082 1.308-3.082 2.921 0 1.613 1.38 2.921 3.082 2.921s3.081-1.308 3.081-2.921c0-1.613-1.379-2.921-3.081-2.921zm10.071.079h-1.865v.585c-.609-.845-1.6-.736-1.6-.736-2.513.192-2.566 2.574-2.566 2.574v.872c0 2.299 2.288 2.468 2.288 2.468 1.613 0 1.838-.738 1.838-.738.013 1.825-1.137 1.716-1.137 1.716h-.503v1.797h.834c2.737 0 2.711-2.775 2.711-2.775V9.3zm-2.923 4.013c-.628 0-1.137-.524-1.137-1.171s.509-1.172 1.137-1.172 1.137.525 1.137 1.172c0 .647-.509 1.171-1.137 1.171zm-7.148.028c-.643 0-1.164-.537-1.164-1.199s.521-1.199 1.164-1.199c.642 0 1.164.537 1.164 1.199s-.522 1.199-1.164 1.199zM8.23 13.286c-.597 0-1.08-.499-1.08-1.114 0-.614.483-1.112 1.08-1.112.597 0 1.081.498 1.081 1.112 0 .615-.484 1.114-1.081 1.114z"/>
</svg>
