<svg xmlns="http://www.w3.org/2000/svg" width="28" height="24">
    <path fill="#FF3737" fill-opacity="0" fill-rule="evenodd" d="M0 0h28v24H0V0z"/>
    <path fill="#FFF" fill-rule="evenodd" d="M23.521 18.173h-6.665l-2.288 5.367s-.157.464-.538.464-.539-.464-.539-.464l-2.288-5.367H4.477a3.47 3.47 0 01-3.478-3.462V3.46A3.47 3.47 0 014.477-.002h19.044a3.471 3.471 0 013.478 3.462v11.251a3.47 3.47 0 01-3.478 3.462zM7.152 7.327s-1.058-.011-1.424.61V5.495s-1.459.019-1.556.003v6.386h1.556v-.37s.466.546 1.293.546c0 0 2.136-.059 2.147-2.116 0 0 .288-2.404-2.016-2.617zm2.497-2.04v1.527s.734.164.734.753v4.329h1.523V7.523s.176-2.137-2.257-2.236zm5.867 2.097c-1.409 0-2.553 1.047-2.553 2.339s1.144 2.339 2.553 2.339c1.41 0 2.552-1.047 2.552-2.339s-1.142-2.339-2.552-2.339zm8.342.062h-1.545v.469c-.504-.676-1.325-.588-1.325-.588-2.081.152-2.125 2.061-2.125 2.061v.697c0 1.841 1.895 1.977 1.895 1.977 1.336 0 1.522-.592 1.522-.592.011 1.462-.941 1.374-.941 1.374h-.417v1.44h.69c2.268 0 2.246-2.222 2.246-2.222V7.446zm-2.421 3.215a.94.94 0 01-.942-.938.94.94 0 01.942-.938c.52 0 .942.42.942.938a.94.94 0 01-.942.938zm-5.921.022a.962.962 0 01-.964-.96c0-.53.432-.96.964-.96s.964.43.964.96-.432.96-.964.96zm-8.843-.044a.893.893 0 110-1.783c.494 0 .895.399.895.892a.893.893 0 01-.895.891z"/>
</svg>
