<svg xmlns="http://www.w3.org/2000/svg" width="34" height="30">
    <path fill="#E7DEB0" fill-opacity="0" fill-rule="evenodd" d="M0 0h34v30H0V0z"/>
    <path fill="#646152" fill-rule="evenodd" d="M16.996 25.806c-1.079 0-2.134-.077-3.157-.223a4466.95 4466.95 0 01-6.546 4.267c-.373.239-.943.251-.712-.637.187-.715 1.119-4.057 1.475-5.332-4.843-2.273-8.07-6.339-8.07-10.977C-.014 5.779 7.602.002 16.996.002c9.394 0 17.01 5.777 17.01 12.902 0 7.126-7.616 12.902-17.01 12.902zm-6.383-15.712l-5.392.001c-1.04.001-1.037 1.666.002 1.665h1.773s.011 4.638.002 5.727c.002.794 1.844.788 1.841-.006l.008-5.719h1.765c1.102.001 1.103-1.667.001-1.668zm6.689 6.958c-.499-1.261-2.222-5.804-2.536-6.447-.266-.544-1.782-.805-2.163 0-.436.922-2.012 5.275-2.535 6.43-.378.835 1.253 1.515 1.631.681l.354-1.191h3.245s-.111.05.319 1.139c.349.884 2.033.271 1.685-.612zm4.888-.688c-.833 0-2.353-.009-2.353-.009s.007-4.411.004-5.482c-.002-1.039-1.922-1.035-1.919.004l.009 6.248s-.142.948.705.948c.846 0 2.725-.009 3.559-.009.833 0 .828-1.7-.005-1.7zm7.217.487l-2.481-3.136s1.685-1.748 2.349-2.381c.388-.369-.813-1.529-1.2-1.16-.376.358-3.014 2.892-3.014 2.892s.024-1.591-.001-2.471c-.019-.69-1.829-.643-1.81.047.019.649-.021 6.515-.021 6.95 0 .686 1.821.684 1.82-.001v-2.308l.535-.412 2.337 3.06c.472.598 1.959-.482 1.486-1.08zm-15.699-4.856l.987 2.965h-2.056l1.069-2.965z"/>
</svg>
