<svg xmlns="http://www.w3.org/2000/svg" width="174" height="130">
    <path fill="#1A1915" fill-rule="evenodd" d="M171.463 65.782l-.006.012c-6.297 10.805-10.302 22.514-12.604 36.849-.218 1.359-.012 1.937.199 2.182.057.066.229.267.74.267h2.765c2.169-.077 4.231 1.477 4.755 3.601l1.242 5.026c.28 1.144.058 2.309-.612 3.196-.674.892-1.737 1.427-2.913 1.469l-6.884.002c-.533 0-.917.14-1.173.427-.422.472-.43 1.294-.398 1.571l.587 6.228c.076.822-.195 1.638-.743 2.238-.549.601-1.338.946-2.168.946h-7.14c-.825 0-1.614-.343-2.167-.942-.55-.604-.822-1.42-.746-2.24l.576-6.143c.004-.035.118-.98-.4-1.567-.303-.344-.795-.518-1.465-.518H31.041c-.641 0-1.12.161-1.424.476-.442.459-.462 1.17-.451 1.455l.013.163.579 6.136c.073.833-.2 1.648-.749 2.243-.059.068-.137.143-.22.215-.067.061-.153.129-.242.19-.078.053-.154.101-.235.149-.45.255-.953.387-1.466.387h-7.141c-.783 0-1.516-.297-2.062-.837l-.101-.102c-.095-.099-.184-.213-.263-.331-.376-.55-.55-1.233-.484-1.915l.583-6.209c.019-.239.055-1.105-.415-1.609-.256-.273-.633-.407-1.155-.407H8.996c-.228-.005-.396-.02-.557-.046l-.169-.032c-.123-.023-.267-.058-.405-.103-.744-.228-1.389-.675-1.852-1.289-.673-.891-.895-2.056-.611-3.195l1.241-5.025c.322-1.304 1.269-2.462 2.533-3.099.113-.056.227-.107.339-.156l.589-.194c.047-.015.121-.032.193-.047.05-.013.117-.027.188-.038.297-.055.606-.075.929-.07h2.75c.504 0 .675-.195.732-.26.2-.226.403-.75.241-1.959l-.298-1.813c-.089-.527-.184-1.05-.28-1.572-.089-.506-.183-1.006-.281-1.502-.066-.354-.134-.698-.204-1.042l-.038-.191c-.121-.589-.246-1.175-.375-1.757l-.852-3.627c-.059-.244-.12-.479-.183-.712-.093-.379-.192-.747-.291-1.113l-.099-.355c-.109-.416-.217-.799-.328-1.181-.162-.575-.33-1.146-.503-1.709l-.382-1.235c-.091-.292-.182-.58-.279-.869l-.141-.432c-.098-.303-.197-.59-.296-.879l-.4-1.146c-.118-.337-.239-.669-.361-1.002l-.436-1.163c-.164-.424-.329-.851-.499-1.271l-.396-.973c-.1-.246-.198-.487-.302-.725-.81-1.916-1.696-3.834-2.637-5.709-.166-.333-.336-.665-.51-.995l-.063-.125c-.14-.268-.277-.53-.418-.791-.22-.411-.417-.783-.623-1.149l-.574-1.031c-.17-.303-.343-.605-.52-.906l-.075-.127C.151 61.563.488 60.547 1.128 60.108l.156-.09c1.045-.466 1.956.672 3.108 2.116l.566.704c.042.053.079.094.119.132.191.187.574.562 1.897.051.633-.254 1.23-.497 1.823-.744.594-.251 1.187-.502 1.776-.755.618-.266 1.231-.535 1.843-.804 1.516-.67 2.965-1.339 4.401-2.026.711-.342 1.421-.687 2.128-1.037.707-.353 1.414-.71 2.118-1.071.051-.033.146-.087.252-.13.704-.365 1.438-.749 2.173-1.142.62-.332 1.24-.671 1.857-1.012v-.002l.335-.185c.56-.308 1.119-.624 1.677-.944.31-.177.617-.353.924-.534.075-.046.115-.067.154-.088l.9-.525c.596-.355 1.198-.716 1.796-1.079.896-.548 1.789-1.103 2.675-1.665.555-.355 1.107-.712 1.66-1.073l.068-.092.176-.061c.611-.406 1.162-.772 1.711-1.146 1.18-.793 2.35-1.602 3.513-2.432 1.453-1.037 2.899-2.102 4.336-3.196 1.412-1.076 2.819-2.18 4.217-3.313.112-.161.251-.304.413-.425.109-.081.225-.147.358-.203.532-.439 1.065-.88 1.598-1.325.556-.465 1.111-.938 1.668-1.416.375-.318.744-.637 1.111-.96l1.944-1.716c.557-.499 1.108-1.001 1.661-1.506l.832-.763c.733-.682 1.471-1.374 2.205-2.073C69.3 19.931 77.235 11.202 85.532.892l.093-.102c.021-.024.051-.056.081-.085l.311-.239.005-.003.165-.089.025-.012.27-.123.049.015.112-.022c-.019-.006.024-.009.082-.018l.138-.011c.026-.002.072-.004.118-.004l.138.005c.025-.002.063.003.105.009l.997.428.195.242c1.138 1.41 2.266 2.794 3.397 4.157 10.81 13.019 21.266 23.605 31.965 32.364.103.091.272.225.447.367l.161.13c4.536 3.678 9.216 7.103 13.913 10.181l-.329.557.445-.476c2.318 1.512 4.723 2.997 7.112 4.387.035.014.107.056.179.104 2.227 1.291 4.558 2.57 6.901 3.782l.109.05c.086.04.17.088.25.142 2.679 1.372 5.57 2.756 8.528 4.07 1.87.827 3.689 1.597 5.458 2.311 1.334.523 1.758.187 2.051-.17l.564-.701c1.182-1.481 2.204-2.759 3.266-2.03.639.439.974 1.455-1.37 5.674zM25.885 124.753l-.426-4.535c-.074-.62-.346-1.822-1.452-1.822h-1.4c-1.169 0-1.432 1.098-1.484 1.435l-.446 4.784c-.033.5.047 1.121.294 1.382.061.066.16.141.374.141l3.704.002c.399 0 .541-.147.588-.196.184-.191.282-.575.263-1.028l-.032-.084.017-.079zm122.415 1.169c.082.093.233.216.605.216h3.705c.217 0 .314-.074.38-.146.277-.306.315-1.009.29-1.336l-.005-.045-.451-4.802c-.017-.131-.213-1.417-1.479-1.417h-1.4c-1.306 0-1.445 1.731-1.45 1.805l-.426 4.553c-.031.225-.043.86.231 1.172zM9.674 109.17l.589.275-.682-.018.631.154-1.239 5.025c-.018.075-.013.119-.009.13l155.973-.007c.061 0 .065-.046.046-.122l-1.239-5.028c-.095-.383-.596-.81-1.162-.81H11.377c-.316 0-.648.14-.888.374-.061.06-.113.119-.159.183l-.656-.156zm39.6-67.159l.408.504c-.353.283-.71.557-1.064.829l-.523-.411.41.503c-.193.156-.427.394-.438.638-.013.247.202.466.226.49l.939.849c.057.049.107.086.149.113l.105-.691c.067-.446.24-.793.512-1.069.073-.079.166-.16.266-.229l.145-.091c.086-.051.203-.102.329-.145.178-.059.363-.091.553-.094l.538-.006-.644-.855c-.19-.204-.644-.461-1.452.133l-.459-.468zM151.566 64.38c.298-.047 1.181-.281 1.181-.281.147-.035.295-.051.44-.051.735 0 1.404.429 1.696 1.123.002.005.36.873.487 1.158.077.168.139.291.189.381.133-.161.298-.383.432-.563.379-.511 1.436-2.104 1.437-2.105.101-.139.292-.488.216-.776-.072-.272-.392-.466-.649-.581-1.08-.507-2.145-1.016-3.202-1.539-.246-.117-.602-.241-.861-.141-.218.086-.312.32-.314.323l-1.114 2.711c-.076.186-.094.306-.095.365.019-.013.077-.011.157-.024zm3.425 8.041c-.682-.073-1.261-.501-1.518-1.117l-1.115-2.657c-.155-.364-.614-.512-1.237-.393-.609.115-2.404.567-2.406.567-.687.164-1.384-.065-1.833-.588-.451-.524-.566-1.249-.304-1.888l2.506-6.099c.073-.196.401-1.297-.841-1.96-.603-.324-1.2-.651-1.795-.982-1.375-.747-2.17-.011-2.258.075l-4.111 4.404c-.441.477-1.124.692-1.798.528-.664-.168-1.173-.68-1.334-1.338 0-.001-.381-1.551-.515-2.065-.107-.407-.382-.814-1.396-.745-.425.028-1.722.135-1.723.136-.694.05-1.348-.28-1.713-.865-.365-.6-.365-1.334-.002-1.923l2.498-4.077c.118-.2.64-1.267-.823-2.299-.86-.589-1.718-1.194-2.579-1.808-1.511-1.021-2.441-.161-2.543-.059l-3.63 3.279c-.497.45-1.229.595-1.859.365-.633-.222-1.095-.776-1.198-1.444l-.238-1.539c-.148-.975-.164-1.076-1.019-1.079-.432 0-1.729-.021-1.729-.021-.687-.005-1.31-.394-1.622-1.014-.311-.621-.247-1.353.171-1.91l2.727-3.669c.246-.326.28-1.14-1.04-2.268-1.09-.93-2.18-1.876-3.266-2.843-1.152-.939-2.107-.245-2.213-.164l-3.056 2.318c-.527.401-1.283.48-1.877.21-.615-.279-1.026-.872-1.071-1.548 0 0-.079-1.017-.094-1.359-.031-.624-.286-.872-.941-.908-.317-.021-1.252-.122-1.252-.122-.213-.02-.419-.077-.606-.164 6.404 10.07 14.814 20.694 25.674 30.067l.182.154c.099.081.217.178.372.318.813.694 1.655 1.393 2.511 2.086l.53.424c2.141 1.707 4.366 3.361 6.604 4.909.046.03.107.073.198.137l.235.162c5.422 3.713 11.189 6.985 17.147 9.731.697.314 1.294.372 1.767.168.669-.289 1.052-1.067 1.256-1.668 1.517-4.172 2.873-7.302 4.683-10.819.425-.821.55-1.491.369-1.99-.144-.403-.511-.732-1.089-.979-.696-.282-1.249-.508-1.785-.736-1.598-.642-2.225.306-2.291.415l-4.01 5.861c-.339.499-.907.799-1.517.799l-.183-.006zM137.48 54.29c.051-.005.102-.007.151-.007.85 0 1.584.567 1.79 1.394.004.013.182.795.269 1.087.084-.068.201-.174.365-.342.321-.328 1.263-1.352 1.264-1.353.066-.07.206-.259.184-.423-.021-.15-.197-.333-.481-.502-.412-.25-.817-.503-1.222-.756-.38-.237-.761-.475-1.144-.708-.205-.124-.496-.26-.726-.199-.202.052-.314.244-.315.247-.017.029-.582.96-.777 1.269l-.001.001c-.092.144-.156.265-.201.364.384-.029.844-.072.844-.072zm-11.591-10.207c-.006-.248-.243-.49-.439-.65-.403-.329-.806-.649-1.227-.956-.922-.674-1.387-.224-1.508-.068 0 0-.396.543-.534.723l-.052.069c.235.002.537.008.537.008.894.009 1.65.661 1.792 1.549 0 0 .093.579.116.769l.001.003c.042-.027.093-.064.15-.115l.916-.828c.009-.007.256-.24.248-.504zm-71.701-3.887l.08.077-.001.033 2.672 3.591c.114.149.206.326.269.521.094.278.117.585.066.884l-.078.302c-.027.073-.055.142-.087.205-.076.151-.171.29-.282.412-.072.076-.125.127-.182.175-.082.071-.19.145-.309.21l-.374.15c-.074.019-.151.037-.234.048l-.181.018-1.789.022c-.842.004-.865.139-.99.888l-.271 1.733c-.059.369-.226.707-.481.977-.098.108-.227.214-.376.305-.122.067-.177.097-.237.121-.499.188-.814.18-1.12.105-.232-.06-.364-.113-.49-.182-.126-.068-.247-.155-.355-.255l-3.688-3.328c-.302-.252-1.175-.765-2.494.126l-.56.397c-.534.383-1.083.765-1.633 1.141l-.37.259c-1.266.891-1.056 1.811-.87 2.218l.04.075 2.503 4.086c.36.59.36 1.322.001 1.913-.172.273-.406.492-.682.644-.304.175-.67.252-1.037.226l-.922-.071-.093-.657-.05.645-.524-.039-.098-.655-.04.647c-1.043-.061-1.288.339-1.392.741l-.044.18-.664-.034.608.243-.647-.088.599.28-.369 1.482c-.049.2-.13.386-.241.561-.077.114-.155.209-.238.294-.239.239-.532.405-.85.486-.562.153-1.345-.033-1.805-.522l-4.123-4.418c-.076-.075-.874-.812-2.251-.063l-1.787.979c-1.143.61-.968 1.583-.84 1.975l2.503 6.086c.26.639.142 1.36-.307 1.885l-.09.098c-.495.462-1.092.617-1.649.513l-.326-.132.086-.114.011-.475-.148.632-2.092-.489c-.658-.124-1.121.024-1.275.389l-1.116 2.657c-.111.261-.283.497-.498.683-.139.114-.265.194-.397.256l-.134.06c-.084.033-.174.061-.268.078-.018.011-.126.03-.232.038l-.166.005c-.144 0-.272-.014-.393-.042l-.195-.055c-.152-.055-.221-.086-.295-.129-.038-.019-.11-.061-.179-.112-.128-.091-.232-.184-.321-.287-.041-.045-.083-.101-.126-.16l-3.995-5.835c-.233-.321-.627-.678-1.3-.678-.286 0-.624.066-1.023.226-.528.225-1.08.451-1.787.737-.568.242-.933.571-1.079.974-.18.499-.056 1.168.369 1.991l.083.159c1.721 3.35 3.068 6.453 4.5 10.377l.19.468c.205.531.58 1.219 1.208 1.474.469.192 1.052.13 1.736-.181l.13-.058c.482-.224.962-.447 1.44-.678.325-.155.648-.309.965-.467.42-.204.832-.409 1.239-.619l3.58-1.883c.623-.341 1.236-.685 1.842-1.033.311-.175.612-.349.91-.525.409-.239.81-.477 1.21-.719.402-.241.8-.483 1.196-.729l1.181-.737c.781-.494 1.556-.996 2.316-1.508.364-.242.726-.489 1.084-.734.164-.159.347-.285.546-.375l.006-.002c2.202-1.524 4.385-3.147 6.49-4.826.176-.224.4-.403.654-.522l.571-.466c.612-.503 1.216-1.012 1.818-1.521.175-.246.405-.444.674-.576.576-.496 1.144-.998 1.706-1.502.283-.249.557-.5.831-.751.596-.545 1.147-1.057 1.69-1.574.339-.321.62-.588.895-.855l.826-.809c.521-.506 1.028-1.015 1.529-1.528l.136-.139c.264-.266.513-.523.757-.78.269-.276.531-.55.787-.824.323-.338.638-.675.953-1.013l.558-.608c.542-.591 1.041-1.149 1.532-1.707.438-.494.869-.988 1.293-1.484l.88-1.037c.242-.288.479-.568.71-.853.228-.272.447-.542.665-.81.286-.347.535-.657.783-.968l1.928-2.468c.228-.302.438-.576.642-.853l.606-.81c.252-.336.497-.672.737-1.006.394-.546.776-1.074 1.149-1.607.322-.454.64-.904.948-1.359.154-.22.302-.437.446-.65.142-.206.279-.405.411-.605l.54-.807c.576-.866 1.144-1.74 1.699-2.615-.056.028-.117.054-.18.077-.14.057-.307.098-.477.114.001 0-.929.101-1.242.119l-.158.014c-.503.066-.72.287-.772.786l-.097 1.466c-.049.681-.462 1.272-1.076 1.548l-.186.074c-.276.091-.583.119-.887.063l-.165-.037c-.044-.012-.108-.031-.165-.052-.069-.025-.137-.057-.202-.088l-.143-.084c-.019-.007-.079-.047-.141-.097l-3.026-2.294c-.119-.093-1.076-.785-2.247.172-1.067.947-2.157 1.893-3.246 2.822-1.205 1.027-1.326 1.847-1.063 2.237zM37.579 53.507l-.546.35c-.079-.121-.175-.276-.267-.43l-.272-.448.458-.494-.55.347-.07-.119c-.107-.165-.248-.248-.429-.248-.167 0-.367.072-.602.216-.129.076-.246.148-.361.223l-.016.01c-.414.253-.823.509-1.235.768l-.753.464c-.283.169-.458.349-.483.497-.03.165.115.353.144.388l1.383 1.471c.124.124.218.207.289.264l.271-1.077c.068-.311.219-.588.428-.812.06-.067.128-.128.2-.189.38-.294.824-.43 1.291-.396l.86.07c-.031-.068-.07-.145-.12-.233l-.076-.126.456-.496zm-.777 5.62zm-20.96 29.309l.241.902c.134.508.263 1.023.385 1.54l.204.826c.181.739.352 1.481.514 2.232.066.288.13.585.193.883.2.919.388 1.857.569 2.803l.243 1.306c.07.365.134.74.199 1.117.089.503.175 1.015.26 1.529.052.31.103.622.149.934.455 2.392 1.307 2.594 2.14 2.594h7.972c.9 0 1.833-.255 1.936-2.15l.061-.783c.032-.378.067-.748.107-1.111l.047-.42c.036-.326.077-.654.121-.975l.176-1.206c.115-.747.245-1.466.385-2.159l.167-.805c.051-.251.099-.459.147-.666.082-.384.176-.771.269-1.154l.171-.691c.183-.735.372-1.447.558-2.144l.28-1.043c.226-.842.442-1.65.633-2.442.087-.362.171-.714.246-1.068.077-.355.148-.704.211-1.047.062-.344.116-.69.166-1.033.175-1.285.224-2.46.151-3.587l-.064-.741c-.043-.361-.078-.606-.119-.854l-.106-.576c-.033-.174-.074-.346-.116-.524l-.053-.225c-.045-.191-.07-.28-.096-.369-.057-.216-.227-.702-.635-.863-.451-.172-1.037.096-1.452.356l-.461-.473h-.001l.352.544c-.386.247-.774.494-1.166.734-.368.23-.745.461-1.12.688l-.112.07c-.408.248-.791.476-1.17.702-.412.241-.817.478-1.224.71-.361.21-.728.419-1.094.622-.063.038-.146.086-.23.131l-.987.544c-.12.075-.2.106-.252.123-.306.179-.723.402-1.134.621l-1.255.651c-.834.433-1.676.853-2.525 1.26-.38.184-.764.368-1.152.55l-.047.048-.129.035c-.305.146-.612.289-.919.427l-.203.093c-.786.366-2.025 1.317-1.431 3.534zm42.127 8.633c.015-.097.029-.177.048-.261.026-.111.054-.218.086-.328l.048-.167c.044-.136.071-.218.103-.303.799-2.269 2.996-5.027 3.824-6.066 1.634-2.057 3.058-3.533 4.287-4.458.405-.303.886-.775.886-1.306v-.402c0-2.299 1.877-4.17 4.184-4.17h11.203c2.309 0 4.186 1.871 4.186 4.17v.494h.309v-.494c0-1.131.47-2.227 1.287-3.007.778-.75 1.808-1.165 2.896-1.165h11.201c2.309 0 4.187 1.872 4.187 4.172v.4c0 .559.553 1.059.884 1.307 1.23.926 2.654 2.402 4.233 4.387 1.266 1.591 4.208 5.532 4.208 7.75v6.203c0 .893.372 1.275 1.243 1.275h4.165c.513 0 1.184-.097 1.468-.553.209-.338.154-.787.006-1.082-2.847-5.675-3.098-13.66-.705-22.484.252-.853.165-1.764-.233-2.514l-.366-.569c-.288-.463-1.122-1.128-1.944-1.556-8.269-4.74-14.846-9.887-20.133-15.745-4.803-5.318-8.514-11.269-11.04-17.704v27.642c0 1.473.308 2.219.917 2.219h1.548c.187 0 .757 0 .757-1.445v-4.008c0-1.01.825-1.832 1.84-1.832.345 0 .551-.038.668-.074-.037-.096-.076-.195-.117-.296-.128-.322-.269-.679-.405-1.109-.09-.303-.214-.754-.261-1.26-.052-.487-.019-1.002.097-1.479.254-1.023.883-1.877 1.722-2.348.151-.086.315-.137.503-.122.241.003.479.105.66.288.179.183.279.434.275.688-.015.658-.02 1.233.071 1.676.072.367.177.701.3 1.102l.185.595c.091.281.187.588.239.924.071.453.041.942-.084 1.375.1.02.257.037.488.037h.388c1.016 0 1.842.823 1.842 1.833v7.286c0 1.012-.826 1.835-1.842 1.835H75.665c-1.016 0-1.841-.823-1.841-1.835v-7.284c0-1.01.825-1.833 1.841-1.833h.389c.294 0 .478-.028.587-.057-.044-.117-.091-.236-.141-.36-.123-.311-.259-.654-.386-1.063-.137-.445-.224-.853-.263-1.25-.049-.502-.015-1.015.098-1.485.254-1.024.881-1.878 1.72-2.348.165-.086.321-.125.483-.125.272.006.513.112.69.298.178.186.272.429.267.685-.014.682-.018 1.239.073 1.67.071.372.175.706.3 1.11l.186.601c.088.276.183.578.235.908.068.452.038.936-.08 1.362.108.027.288.054.575.054 1.015 0 1.84.823 1.84 1.833v4.008c0 1.427.553 1.44.736 1.443h1.091c.276 0 .74 0 .74-1.977V41.523v-.043c-7.561 22.35-20.299 29.304-30.547 34.901l-.556.303c-.633.41-1.146.866-1.356 1.204l-.351.55c-.402.746-.498 1.592-.288 2.405l-.59.306.629-.169c.149.56.29 1.118.42 1.67.059.243.114.488.167.735.018.076.041.172.058.267.04.184.083.391.125.601l.031.218.108.505c.021.106.044.229.064.353.018.091.035.194.05.301.023.111.047.249.068.393l.025.201c.072.406.143.909.203 1.408.033.257.063.517.087.775.036.32.057.539.074.757.008.074.015.16.019.246l.05.689c.016.215.027.461.039.705l.024.874c.006.212.008.436.008.659 0 .255-.002.508-.009.759-.004.261-.012.475-.023.69-.004.155-.009.237-.015.315l-.045.638c-.004.176-.024.404-.046.638l-.086.77c-.035.278-.065.518-.103.758-.029.201-.063.403-.099.606l-.664.035.643.097-.162.795c-.017.115-.059.303-.105.494l-.029.127c-.051.214-.107.426-.163.637l-.19.665c-.067.219-.136.432-.208.64-.088.259-.159.462-.236.658-.073.197-.156.406-.243.612-.082.2-.168.402-.257.599-.08.174-.15.318-.216.453v.017l-.071.131c-.146.293-.198.738.01 1.073.283.457.954.552 1.469.552h4.162c.874 0 1.246-.382 1.246-1.275v-6.203c0-.173.011-.357.043-.549zm9.092-8.074l.453.464c-.219.212-.456.443-.706.699-.598.618-1.209 1.309-1.813 2.048-.189.231-.369.458-.542.679-.673.895-1.219 1.72-1.68 2.426-.067.103-.083.178-.073.196.051.093.367.284 1.022.284h46.512c.657 0 .974-.192 1.023-.285.012-.019-.005-.094-.073-.199-.578-.882-1.27-1.916-2.13-3.011-.906-1.147-1.797-2.146-2.723-3.053-.102-.1-.234-.121-.329-.121h-.006c-.177.002-.355.077-.476.201-.805.816-1.871 1.266-3 1.266H91.317c-.502 0-.994-.089-1.464-.265-1.106-.416-1.98-1.279-2.414-2.36h-.913c-.606 1.517-2.037 2.55-3.703 2.624l-.181.003H71.439c-1.133 0-2.198-.451-3-1.268-.18-.185-.48-.21-.693-.073l-.02.044-.181.113-.135-.219-.349-.193zm3.869-2.576c0 .277.227.504.505.504h11.203c.295-.015.506-.236.506-.504v-2.641c0-.276-.227-.502-.506-.502H71.435c-.278 0-.505.226-.505.502v2.641zm19.883 0c0 .277.226.502.504.502h11.203c.279 0 .506-.225.506-.502v-2.641c0-.277-.227-.503-.506-.503H91.317c-.278 0-.504.226-.504.503v2.641zm5.634-16.744c0-.127-.022-.541-.304-.541h-.584c-.064.037-.166.276-.166.653v2.498c0 .11.018.469.24.469h.539c.159 0 .275 0 .275-.633v-2.446zm-17.882.112c0-.376-.101-.615-.153-.653l-.597.002c-.283 0-.305.411-.305.538v2.449c0 .631.116.631.276.631h.536c.226 0 .243-.359.243-.469v-2.498zm-30.13 6.943l.476-.442-.35.576.346-.372-.015-.009.184-.291c.01-.054-.033-.207-.138-.32l-.744-.817c-.452-.521-.896-1.072-1.324-1.651-.141-.189-.281-.382-.42-.579l-.41-.595c-.135-.201-.27-.403-.398-.606-.334-.523-.65-1.052-.936-1.575-.101-.184-.201-.368-.296-.556-.054-.101-.109-.206-.158-.312-.031-.057-.073-.146-.114-.235-.098-.194-.194-.406-.284-.613l-.016-.03c-.063.073-.055.114-.026.202.071.191.126.316.184.449l.075.174c.144.318.297.626.468.944l.153.28c.539.988 1.227 2.076 1.99 3.148.151.213.306.422.462.632.159.209.317.42.476.624l.239.3c.175.215.326.401.482.582.085.104.162.192.239.279.082.098.153.177.225.253l-.37.559v.001zm4.2 13.224h.001-.001zm72.345-13.608c2.039-2.201 4.334-5.674 5.142-7.777.067-.169.059-.215-.002-.273-.006.012-.013.024-.018.038-1.086 2.487-3.073 5.436-5.06 7.516l-.019.019c-.11.107-.155.272-.142.323l.099.154zm12.184 14.767c-1.425-5.309-2.657-9.894-.523-16.178.385-1.071.207-1.565-.791-2.212-.576-.416-1.123-.821-1.665-1.232-.259-.198-.537-.277-.809-.214-.334.073-.642.344-.868.767-1.325 2.447-3.284 5.164-5.113 7.094-.739.684-1.29 1.605-1.583 2.627-2.387 8.718-1.925 16.755 1.236 21.496 1.174 1.707 2.099 1.839 3.275 1.839h6.666c1.028 0 1.768-.211 2.141-.608.246-.261.349-.623.316-1.103-.336-5.032-1.369-8.881-2.282-12.276zm19.509-6.215c-5.066-2.313-10.019-5.006-14.714-8.005-.485-.321-.908-.484-1.248-.484-.113 0-.218.018-.312.054-.423.164-.59.666-.643.875-1.24 4.634-.267 8.249.964 12.827.943 3.514 2.013 7.496 2.383 12.774.103 1.908 1.037 2.163 1.937 2.163h7.972c.831 0 1.683-.202 2.145-2.611.791-5.036 1.759-9.634 2.958-14.056.592-2.219-.65-3.169-1.442-3.537zM61.899 104.96c.067.03.141.045.212.045h49.73c.281 0 .508-.227.508-.505v-4.096c0-.881-1.074-.949-1.402-.949H63.011c-.329 0-1.404.068-1.404.951v4.096c0 .051.008.095.023.146.046.117.087.175.142.224l-.135.681.262-.593zm-14.128-1.848l-.557-.331.114-.198c.075-.127.128-.22.179-.316.113-.212.226-.433.333-.655l.252-.562c.092-.221.184-.452.273-.688l.265-.769c.081-.262.129-.419.172-.576l.223-.847c.079-.334.14-.634.198-.941l.162-.95c.036-.25.068-.505.1-.763l.108-1.169c.034-.506.054-1.018.065-1.541l.003-.5-.025-1.312c-.004-.126-.01-.258-.02-.393-.009-.189-.019-.366-.033-.546-.008-.167-.019-.317-.032-.468l-.052-.582c-.013-.159-.026-.295-.043-.433l-.073-.626c-.029-.242-.063-.485-.096-.728-.047-.321-.1-.651-.155-.982l-.319-1.677c-.047-.243-.083-.426-.128-.609l-.181-.792c-.112-.461-.233-.926-.358-1.393-.187-.628-.535-1.478-1.215-2.244-.097-.113-.197-.215-.302-.312l-.246-.26c-.046-.046-.114-.119-.182-.197l-.324-.361c-.178-.204-.351-.407-.523-.616-.298-.355-.595-.73-.885-1.115-.095-.121-.195-.255-.292-.386l-.256-.348c-.258-.354-.509-.709-.749-1.066-.084-.12-.17-.25-.254-.382l-.233-.358c-.456-.706-.871-1.404-1.233-2.074-.226-.424-.533-.695-.867-.768-.268-.06-.551.015-.814.216-.543.409-1.088.812-1.635 1.212-.19.136-.289.208-.387.276-.556.438-.806.882-.451 1.911.207.611.375 1.159.514 1.698l-.572.389.612-.217.184.783c.051.236.074.349.094.465l.11.635c.017.101.029.187.042.276l.044.341c.018.132.032.267.045.395l.095 1.601c.027 1.239-.07 2.535-.296 3.947-.092.583-.205 1.168-.332 1.752l-.412 1.752c-.1.396-.201.791-.308 1.192l-.324 1.21c-.153.566-.309 1.141-.461 1.732l-.034.129-.11.429c-.137.532-.269 1.067-.398 1.617l-.101.431c-.281 1.248-.504 2.403-.678 3.512-.02.119-.038.228-.052.337-.032.194-.057.365-.081.541l-.056.428-.668.088.646.075-.131 1.11c-.044.454-.087.916-.124 1.386l-.033.477c-.03.478.074.836.318 1.094.372.395 1.112.604 2.138.604h6.665c1.174 0 2.096-.131 3.27-1.831l.235-.368.632.209zm17.445-72.228zm2.68-2.988l.163.186 2.15 2.423c.309.352.467.797.459 1.245.373-.604.74-1.208 1.101-1.81.153-.254.303-.506.447-.753.146-.242.284-.476.417-.709l1.502-2.634c.316-.56.618-1.107.913-1.654l2.854-5.5c.319-.647.632-1.289.934-1.924l.999-2.13c.351-.766.694-1.521 1.022-2.266l.114-.259-1.08 1.243c-.634.724-1.234 1.408-1.839 2.086l-.935 1.047c-.395.439-.71.787-1.026 1.131-.292.328-.595.661-.897.987-.742.808-1.484 1.61-2.227 2.396-.218.237-.444.474-.669.711l-.176.185c-.563.597-1.13 1.185-1.693 1.768-.529.548-1.058 1.087-1.586 1.623l-.959.966c-.614.619-.256 1.295.012 1.642zm7.986 2.288l-1.1 1.848c-.952 1.571-1.951 3.158-2.969 4.713l-.576.872c-.105.163-.222.337-.339.508l-.599.887c-.292.431-.589.864-.891 1.299l-1.262 1.785c-.702.977-1.38 1.905-2.068 2.816-.412.549-.83 1.097-1.247 1.636-.457.593-.916 1.176-1.381 1.756-.225.284-.453.567-.683.851l-1.334 1.619c-2.057 2.468-4.249 4.912-6.512 7.264l-2.241 2.267c-.808.804-1.626 1.593-2.45 2.366l-2.46 2.255c-.472.423-.795 1.279-.515 1.978l.117.259c.125.261.272.555.438.855l.171.32c.044.088.095.173.148.262l.177.302c.124.21.246.41.371.611.128.21.257.409.391.607.125.19.247.369.367.546.521.746 1.055 1.435 1.582 2.04l.065.076.027.027c.314.319.866.604 1.716.158.115-.068.249-.131.379-.183 12.61-6.905 29.981-16.411 33.958-63.334.042-.498.109-1.3-.057-1.847l-.126-.318-.143.369c-.941 2.403-1.908 4.706-2.957 7.042-.246.549-.503 1.115-.769 1.684l-.433.93c-1.215 2.577-2.501 5.129-3.824 7.589l-.413.763c-.817 1.504-1.679 3.027-2.558 4.522zm12.799-.99c2.624 18.282 13.544 32.991 32.469 43.781.86.451 1.423.134 1.741-.214 1.43-1.632 2.912-3.892 3.766-5.751.354-.72.031-1.636-.468-2.082-7.904-7.05-15.183-15.329-21.636-24.61C99.079 32.443 94.286 23.99 90.3 15.184c-.371 3.251-.809 6.37-1.314 9.319-.194 1.403-.38 4.266-.305 4.691zm14.609 2.522c.003-.434.162-.861.46-1.199l2.29-2.585c.132-.152.754-.947.035-1.669-4.29-4.301-8.689-9.055-13.08-14.139 2.548 5.781 5.927 12.524 10.295 19.592zm5.71-1.454c.888.083 1.586.797 1.649 1.698l.017.247.002.033c.064-.025.149-.064.257-.121.095-.059.299-.235.304-.239.031-.029.143-.159.145-.289.003-.143-.125-.3-.233-.406-.31-.306-.632-.604-.952-.901l-.103-.096c-.433-.405-.714-.451-.799-.382-.005.007-.269.301-.355.405l-.007.006c-.008.012-.019.023-.028.034l.103.011zM16.732 64.35l.077.116-.468.467.546-.351 1.149 1.658c.118.159.252.337.364.473.047-.086.104-.2.174-.352l.669.091-.594-.262.411-.986c.102-.244.229-.436.389-.6.214-.22.481-.383.774-.472.102-.03.193-.051.282-.064.25-.034.455-.026.685.027l1.238.295c.084.006.128.002.152-.002-.026-.013-.037-.115-.096-.274l-1.136-2.76c-.051-.113-.15-.286-.341-.354-.199-.071-.496-.019-.848.149-1.056.52-2.12 1.032-3.192 1.532-.259.117-.573.304-.653.566-.09.299.123.659.167.728l.144.215-.417.543.524-.383zm-.617.244zm17.257-7.787zm16.985-6.481v-.001.001zm-2.208-5.013zm14.765-14.227l-.559-.362.457.46c-.106.105-.233.259-.233.4 0 .135.117.262.149.294l.128.079-.003.016.258.194c.071.035.13.059.178.077l.002-.02.656-.082-.644-.084c.034-.537.218-.946.52-1.255l.104-.099.476.448-.369-.534.113-.079c.26-.166.543-.262.83-.286l.078-.005-.027-.031-.094-.108-.269-.307c-.079-.065-.362-.019-.792.384l-.184.17-.53-.391.39.524-.635.597zm2.571-1.333zM9.937 105.979z"/>
</svg>
