<svg xmlns="http://www.w3.org/2000/svg" width="132" height="122">
    <path fill="#FFD839" fill-opacity="0" fill-rule="evenodd" d="M0 0h132v121.999H0V0z"/>
    <path fill-rule="evenodd" d="M124.764 29.817c-.616.076-1.306.101-1.948.101-1.127 0-2.101-.078-2.261-.092-1.4-.119-2.438-1.352-2.318-2.754.117-1.402 1.355-2.459 2.747-2.328.537.044 2.152.135 3.145.011 1.371-.169 2.669.815 2.843 2.214.174 1.398-.813 2.672-2.208 2.848zm-8.212-11.745c-.417.265-.887.391-1.349.391-.847 0-1.673-.422-2.157-1.193-.748-1.194-.39-2.768.799-3.516.748-.471 1.948-2.128 2.526-3.144.696-1.222 2.251-1.648 3.471-.95 1.22.699 1.643 2.257.947 3.48-.336.588-2.117 3.598-4.237 4.932zm-8.404-6.513c.175 1.396-.815 2.671-2.209 2.848-.105.012-.212.018-.32.018-1.261 0-2.36-.943-2.518-2.233-.211-1.67-.036-4.792-.018-5.141.082-1.405 1.26-2.516 2.691-2.396 1.401.082 2.469 1.288 2.39 2.696-.067 1.143-.13 3.296-.016 4.208zm7.525 9.674c2.061 3.087 2.632 6.741 1.485 9.534-1.634 3.978-6.684 8.271-11.995 8.271-2.555 0-6.222-.969-9.197-5.587-2.326-3.618-3.012-6.929-2.028-9.834 1.523-4.518 6.52-6.32 8.398-7 4.989-1.793 10.331.12 13.337 4.616zm-16.915 4.018c-.462 1.361.039 3.189 1.486 5.435 1.386 2.159 3.043 3.252 4.919 3.252 3.214.001 6.414-2.977 7.289-5.111.492-1.2.089-3.111-1.008-4.754-.614-.92-2.351-3.058-5.21-3.058-.704 0-1.437.136-2.174.401-1.247.452-4.566 1.649-5.302 3.835zm-1.47-7.111c-.393.22-.818.323-1.237.323-.892 0-1.756-.47-2.224-1.306-.829-1.49-2.726-2.663-3.388-2.991-1.256-.62-1.781-2.145-1.165-3.409.612-1.262 2.122-1.795 3.388-1.178.388.188 3.843 1.928 5.608 5.091.686 1.229.245 2.783-.982 3.47zm-6.283 9.123c.178 1.399-.808 2.672-2.205 2.848-.406.051-.82.071-1.216.071-1.422 0-2.654-.261-2.825-.298-1.373-.302-2.24-1.662-1.94-3.038.302-1.376 1.669-2.249 3.03-1.943.352.076 1.476.257 2.318.147 1.374-.178 2.665.813 2.838 2.213zm-47.55-2.028c-.782 12.038-5.372 83.253-5.366 94.219.001 1.406-1.138 2.551-2.542 2.553h-.002c-1.404 0-2.542-1.141-2.543-2.551-.006-10.748 4.159-75.734 5.242-92.468-8.394 2.812-18.261 6.064-29.915 9.853-.259.083-.524.125-.786.125-.717 0-1.417-.305-1.908-.865-.671-.761-.826-1.851-.395-2.77.451-.964 11.321-23.686 33.321-30.705C44.046.878 50.42-.009 57.508-.009c11.613 0 24.574 2.613 27.189 5.482.617.68.918 1.522.842 2.365-.152 1.683-.315 3.296-42.084 17.397zM57.509 5.09c-6.565 0-12.419.805-17.405 2.398-13.517 4.311-22.581 15.582-27.04 22.442 8.435-2.766 17.933-5.923 27.109-9.031.018-.004.033-.01.051-.016C55.927 15.567 70.675 10.404 77.487 7.62c-4.213-1.195-11.594-2.53-19.978-2.53zm33.132 38.349c-.394.222-.824.328-1.246.328-.886 0-1.752-.467-2.218-1.299-.688-1.226-.256-2.78.967-3.473 1.329-.753 3.082-2.048 3.475-2.701.721-1.21 2.286-1.6 3.488-.879 1.208.723 1.6 2.291.877 3.498-1.296 2.171-4.677 4.152-5.343 4.526zm15.342 6.873c-.108.013-.214.019-.32.019-1.265 0-2.358-.942-2.522-2.233-.208-1.67-.034-4.791-.014-5.141.082-1.406 1.251-2.497 2.687-2.395 1.403.082 2.474 1.287 2.393 2.694-.068 1.143-.131 3.296-.017 4.208.176 1.397-.811 2.672-2.207 2.848zm14.752-6.545c-1.56 0-4.621-.861-5.587-4.172-.395-1.351.378-2.768 1.726-3.163 1.352-.403 2.761.379 3.156 1.73.151.514.683.528.686.507 1.431-.054 2.568 1.088 2.598 2.497.027 1.407-1.088 2.573-2.493 2.602l-.086-.001zM48.101 59.759c.633.177 1.243.418 1.842.688-.444-.493-.852-1.031-1.196-1.641-2.83-5.017-1.933-8.723-.685-10.948 2.364-4.214 7.356-5.873 10.136-5.961l.308-.005c1.905 0 8.312.688 10.736 9.522.591 2.162.042 4.499-1.543 6.584-2.396 3.149-6.875 5.349-10.893 5.349-1.111-.001-2.145-.177-3.105-.484 2.081 1.773 3.91 4.102 5.512 6.757.275-.598.633-1.176 1.094-1.719 2.502-2.946 7.418-4.465 10.445-4.027 3.264.469 5.33 3.219 6.988 5.429.521.692 1.058 1.41 1.498 1.854 1.856.291 8.159-1.233 12.104-2.242l-3.337-6.699 5.342-1.616-2.365-6.298-4.11-1.007c-.683-.168-1.1-.858-.934-1.541.17-.686.86-1.107 1.538-.937l5.414 1.328 2.9 7.717 3.672-1.112-.525 8.512c2.345.04 4.426 1.297 5.438 3.431 1.232 2.603.461 5.554-1.958 7.517-2.442 1.983-8.978 3.768-18.112 5.776.673 1.059 1.593 2.007 2.692 1.971 1.557-.108 5.087-.432 9.207-.81 5.525-.502 12.093-1.102 16.404-1.416 5.437-.365 8.186 3.1 8.958 5.227 1.533 4.219 4.649 16.601 5.308 22.755.429 4.037-2.711 7.934-7.004 8.691-.455.085-.929.123-1.416.123-.906 0-1.85-.152-2.782-.487-.225.953-.985 1.732-2.006 1.922-.161.03-.315.045-.469.045-1.203 0-2.27-.857-2.499-2.085l-3.67-19.772-38.275 5.645-5.802 14.604c-.398 1.001-1.354 1.608-2.365 1.608-.314 0-.632-.059-.941-.182-1.306-.52-1.942-2.004-1.423-3.314l6.1-15.351c-1.416-10.317-7.039-35.537-17.588-38.489-1.354-.377-2.145-1.782-1.767-3.14.378-1.356 1.78-2.151 3.134-1.772zm20.985 40.83l2.835-.418c-1.217-.694-2.337-1.563-3.35-2.621.21 1.153.38 2.178.515 3.039zM63.773 72.74l.166.539c1.127 3.636 4.559 14.703 6.051 17.537 1.575 2.993 4.506 6.864 11.696 6.146 9.262-.95 27.035-2.226 27.215-2.238.052-.003.103.005.155.005.095-.001.188.001.281.011.034.004.067.01.101.016.696.101 1.318.488 1.719 1.061.029.04.062.075.088.117.025.04.042.085.065.127.056.102.11.205.152.317.016.042.024.087.038.13.03.097.064.191.083.292l2.529 13.628c.888 3.537 2.651 5.345 4.879 4.955 1.495-.265 2.988-1.586 2.824-3.126-.604-5.641-3.578-17.56-5.031-21.553-.082-.211-.914-2.107-3.809-1.886-4.286.312-10.816.907-16.309 1.41-4.166.382-7.742.707-9.317.817-4.127.313-6.829-2.951-8.242-5.919-5.752 1.215-8.894-3.393-10.252-5.403l-.329-.484c-.81-1.15-.536-2.742.61-3.554 1.149-.814 2.738-.537 3.547.613l.385.566c1.755 2.6 3.058 3.81 5.255 3.222.437-.117 1.426-.331 2.757-.617 3.937-.846 15.911-3.419 18.131-5.224.328-.265.836-.792.567-1.365-.165-.339-.601-.652-1.332-.498-.839.175-2.197.531-3.819.95-11.179 2.917-16.215 3.827-18.458 1.92-.908-.769-1.68-1.795-2.497-2.883-1.093-1.459-2.459-3.275-3.639-3.444-1.364-.191-4.502.692-5.852 2.285-.569.67-.533 1.133-.408 1.53zM53.177 56.294c.74 1.312 1.927 1.951 3.629 1.951h.001c2.455 0 5.399-1.435 6.847-3.341.425-.559.889-1.383.682-2.14-1.379-5.022-4.245-5.772-5.83-5.772-1.845.056-4.825 1.253-6.01 3.364-.883 1.574-.655 3.572.681 5.938z"/>
</svg>
