<svg xmlns="http://www.w3.org/2000/svg" width="134" height="128">
    <path fill="#FFD839" fill-opacity="0" fill-rule="evenodd" d="M0 2h132v121.999H0V2z"/>
    <path fill="none" fill-rule="evenodd" stroke="#1A1915" stroke-width="4" d="M21 101h91c3.313 0 6 2.686 6 6s-2.687 6-6 6H21c-3.314 0-6-2.686-6-6s2.686-6 6-6z"/>
    <path fill="none" fill-rule="evenodd" stroke="#1A1915" stroke-width="4" d="M53 17h27c16.568 0 30 13.431 30 30v57H23V47c0-16.569 13.431-30 30-30z"/>
    <path fill="none" fill-rule="evenodd" stroke="#1A1915" stroke-width="4" d="M61 5h11c6.627 0 12 5.372 12 12v4H49v-4c0-6.628 5.373-12 12-12z"/>
    <path fill="none" fill-rule="evenodd" stroke="#1A1915" stroke-width="4" d="M66.5 2C68.985 2 71 4.014 71 6.5 71 8.985 68.985 8 66.5 8c-2.486 0-4.5.985-4.5-1.5C62 4.014 64.014 2 66.5 2zM28.5 109c4.142 0 7.5 3.358 7.5 7.5 0 4.142-3.358 7.499-7.5 7.499-4.142 0-7.5-3.357-7.5-7.499 0-4.142 3.358-7.5 7.5-7.5zM105.5 109c4.142 0 7.5 3.358 7.5 7.5 0 4.142-3.358 7.499-7.5 7.499-4.142 0-7.5-3.357-7.5-7.499 0-4.142 3.358-7.5 7.5-7.5zM44 56h44c5.523 0 10 4.477 10 10v28c0 5.523-4.477 10-10 10H44c-5.523 0-10-4.477-10-10V66c0-5.523 4.477-10 10-10z"/>
    <path fill="none" fill-rule="evenodd" stroke="#1A1915" stroke-width="4" d="M46 67c1.104 0 2 .895 2 2v24c0 1.104-.896 2-2 2-1.105 0-2-.896-2-2V69c0-1.105.895-2 2-2zM53 67c1.104 0 2 .895 2 2v24c0 1.104-.896 2-2 2-1.105 0-2-.896-2-2V69c0-1.105.895-2 2-2zM80 67c1.104 0 2 .895 2 2v24c0 1.104-.896 2-2 2-1.105 0-2-.896-2-2V69c0-1.105.895-2 2-2zM87 67c1.104 0 2 .895 2 2v24c0 1.104-.896 2-2 2-1.105 0-2-.896-2-2V69c0-1.105.895-2 2-2zM63.5 43h6c5.247 0 9.5 4.253 9.5 9.5v2.999C79 57.985 76.985 60 74.5 60h-16c-2.485 0-4.5-2.015-4.5-4.501V52.5c0-5.247 4.253-9.5 9.5-9.5z"/>
</svg>
