<svg xmlns="http://www.w3.org/2000/svg" width="34" height="30">
    <path fill="#E7DEB0" fill-opacity="0" fill-rule="evenodd" d="M-.001 0H34v30H-.001V0z"/>
    <path fill="#646152" fill-rule="evenodd" d="M22.717 29.971H10.802c-4.855 0-8.806-3.905-8.806-8.703V8.702C1.996 3.904 5.947 0 10.802 0h11.915c4.856 0 8.806 3.904 8.806 8.702v12.566c0 4.798-3.95 8.703-8.806 8.703zm5.966-21.269c0-3.251-2.676-5.895-5.966-5.895H10.802c-3.289 0-5.965 2.644-5.965 5.895v12.566c0 3.251 2.676 5.896 5.965 5.896h11.915c3.29 0 5.966-2.645 5.966-5.896V8.702zm-3.853.052a1.827 1.827 0 01-1.838-1.817c0-1.002.823-1.816 1.838-1.816 1.015 0 1.838.814 1.838 1.816a1.827 1.827 0 01-1.838 1.817zm-2.524 11.692a7.803 7.803 0 01-5.546 2.286c-4.345 0-7.879-3.493-7.879-7.787 0-2.118.88-4.177 2.415-5.651a7.594 7.594 0 015.503-2.137c2.453.072 4.489.889 5.888 2.364 1.325 1.398 2 3.284 1.952 5.452a7.937 7.937 0 01-2.333 5.473zm-1.558-9.131c-.903-.954-2.296-1.485-4.027-1.534-.047-.002-.095-.002-.143-.002-1.276 0-2.49.493-3.432 1.397a5.254 5.254 0 00-1.61 3.769c0 2.847 2.343 5.162 5.224 5.162 2.865 0 5.161-2.28 5.225-5.191.032-1.469-.395-2.714-1.237-3.601z"/>
</svg>
