<svg xmlns="http://www.w3.org/2000/svg" width="28" height="24">
    <path fill="#FF3737" fill-opacity="0" fill-rule="evenodd" d="M0 0h28v24H0V0z"/>
    <path fill="#FFF" fill-rule="evenodd" d="M18.84 23.999H9.155c-3.947 0-7.158-3.127-7.158-6.969V6.967c0-3.842 3.211-6.968 7.158-6.968h9.685c3.947 0 7.158 3.126 7.158 6.968V17.03c0 3.842-3.211 6.969-7.158 6.969zm4.849-17.032c0-2.603-2.175-4.721-4.849-4.721H9.155c-2.674 0-4.85 2.118-4.85 4.721V17.03c0 2.603 2.176 4.721 4.85 4.721h9.685c2.674 0 4.849-2.118 4.849-4.721V6.967zm-3.132.042c-.825 0-1.494-.651-1.494-1.454 0-.803.669-1.454 1.494-1.454s1.494.651 1.494 1.454c0 .803-.669 1.454-1.494 1.454zm-2.052 9.363a6.39 6.39 0 01-4.508 1.83c-3.531 0-6.404-2.798-6.404-6.235 0-1.696.715-3.346 1.963-4.526a6.222 6.222 0 014.473-1.71c1.994.057 3.649.711 4.786 1.892 1.077 1.12 1.626 2.63 1.587 4.366a6.312 6.312 0 01-1.897 4.383zM17.239 9.06c-.734-.764-1.867-1.189-3.273-1.228a4.04 4.04 0 00-2.906 1.116 4.18 4.18 0 00-1.31 3.019c0 2.28 1.906 4.134 4.247 4.134a4.224 4.224 0 004.247-4.158c.026-1.175-.321-2.173-1.005-2.883z"/>
</svg>
