<svg xmlns="http://www.w3.org/2000/svg" width="60" height="60">
    <path fill="#009780" fill-rule="evenodd" d="M2.999-.001H57a3 3 0 013 3V57c0 1.656-1.344 3-3 3H2.999A3 3 0 010 57V2.999a3 3 0 012.999-3z"/>
    <path fill="#FFF" fill-rule="evenodd" d="M41.533 41.905a2.488 2.488 0 01-2.059 1.094h-4.495c-.814 0-1.704-.398-2.303-1.006h-3.691c-1.655 0-2.996-1.351-2.996-3.018V27.909c0-1.667 1.341-3.018 2.996-3.018h.783c.459-.61.91-1.302 1.215-2.012.461-1.072.999-3.337.999-4.025 0-2.25 3.996-3.018 4.995 1.006.499 2.012-.25 3.773-1.124 5.031h6.118a3.007 3.007 0 012.997 3.018s.443 12.861-3.435 13.996zm-19.54 1.094h-2.997c-1.655 0-2.997-1.351-2.997-3.018V25.896a3.007 3.007 0 012.997-3.017h2.997a3.007 3.007 0 012.997 3.017v14.085c0 1.667-1.342 3.018-2.997 3.018zm-1.498-7.042a2.506 2.506 0 00-2.498 2.515 2.506 2.506 0 002.498 2.515 2.506 2.506 0 002.497-2.515 2.506 2.506 0 00-2.497-2.515z"/>
</svg>
