<svg xmlns="http://www.w3.org/2000/svg" width="166" height="131">
    <path fill="#1A1915" fill-rule="evenodd" d="M163.342 53.216c1.426 0 2.58 1.157 2.58 2.585 0 1.427-1.154 2.585-2.58 2.585-5.806 0-11.019-2.53-14.645-6.53v8.672c0 8.089 6.57 14.671 14.645 14.671 1.426 0 2.58 1.158 2.58 2.585s-1.154 2.585-2.58 2.585c-5.806 0-11.019-2.53-14.645-6.53v52.827c0 1.429-1.155 2.585-2.581 2.585s-2.58-1.156-2.58-2.585V73.839c-3.627 4-8.84 6.53-14.645 6.53-1.426 0-2.581-1.158-2.581-2.585s1.155-2.585 2.581-2.585c8.075 0 14.645-6.582 14.645-14.671v-8.672c-3.627 4-8.84 6.53-14.645 6.53-1.426 0-2.581-1.158-2.581-2.585 0-1.428 1.155-2.585 2.581-2.585 8.075 0 14.645-6.58 14.645-14.669v-8.672c-3.627 3.999-8.84 6.529-14.645 6.529-1.426 0-2.581-1.158-2.581-2.585s1.155-2.585 2.581-2.585c8.075 0 14.645-6.581 14.645-14.669 0-1.428 1.154-2.585 2.58-2.585 1.426 0 2.581 1.157 2.581 2.585 0 8.088 6.57 14.669 14.645 14.669 1.426 0 2.58 1.158 2.58 2.585s-1.154 2.585-2.58 2.585c-5.806 0-11.019-2.53-14.645-6.529v8.672c0 8.089 6.57 14.669 14.645 14.669zm-31.85 8.366c1.408-.209 2.727.749 2.944 2.162.217 1.409-.748 2.73-2.157 2.947-1.135.176-2.231.257-3.289.257-13.789 0-21.13-13.809-21.458-14.442l-10.97-20.403-1.467 1.514c-1.22 1.258-2.72 2.109-4.346 2.595.703 4.687 2.329 15.662 2.622 18.897.483 5.329 6.27 28.918 14.344 33.115.84.434 1.373 1.293 1.394 2.237l.816 37.124c.031 1.431-1.098 2.611-2.522 2.644h-.058c-1.402 0-2.548-1.119-2.581-2.526l-.784-35.718c-10.444-7.303-15.444-33.02-15.751-36.408-.29-3.202-2.039-14.965-2.674-19.193-1.847-.434-3.542-1.363-4.901-2.764l-2.033-2.102c-2.309-2.382-3.796-5.414-4.395-8.654-1.985.863-3.637 1.338-4.88 1.338-.452 0-.859-.06-1.21-.176-2.69-.89-4.987-5.61-6.441-9.415-.276-.723-.215-1.534.171-2.208.385-.672 1.052-1.137 1.816-1.265 2.734-.456 7.51-1.019 9.91-.005l-.004-5.071c0-3.343 2.716-6.065 6.056-6.065 3.339 0 6.057 2.722 6.057 6.065v2.361h4.347V6.062c0-3.343 2.717-6.065 6.056-6.065 3.338 0 6.055 2.722 6.052 6.065v5.069c2.4-1.011 7.178-.447 9.909.006.764.127 1.431.591 1.817 1.266.384.672.446 1.485.169 2.208-1.454 3.805-3.755 8.525-6.441 9.414-.352.116-.758.174-1.212.174-1.241 0-2.892-.473-4.876-1.336-.3 1.62-.824 3.174-1.574 4.631l12.144 22.594c.301.573 7.18 13.378 19.4 11.494zM71.426 15.815c-.599-.133-1.973-.121-3.569.012.704 1.431 1.415 2.634 1.894 3.173.634-.14 1.753-.568 2.966-1.122-.501-.934-.985-1.718-1.291-2.063zm25.572-9.753c0-.494-.401-.895-.894-.895-.495 0-.895.401-.895.895v4.946c0 1.427-1.154 2.585-2.581 2.585H83.12c-1.426 0-2.581-1.158-2.581-2.585V6.062c0-.494-.4-.895-.894-.895s-.894.401-.894.895v10.443l.333 4.207c.206 2.702 1.358 5.258 3.243 7.204l2.033 2.101c1.859 1.919 5.17 1.92 7.031 0l2.033-2.101c1.885-1.946 3.037-4.505 3.244-7.204l.338-4.406-.008-10.244zm8.999 12.939c.482-.539 1.194-1.743 1.897-3.176-1.6-.135-2.969-.148-3.573-.01-.306.345-.789 1.129-1.289 2.064 1.211.555 2.33.982 2.965 1.122zM73.493 54.174v19.274h4.16v10.419h10.53v11.851H72.092c-1.181 2.629-2.493 6.073-2.841 10.158h1.771v-.13c0-5.242 4.2-9.507 9.361-9.507 2.525 0 4.878.989 6.626 2.786 1.747 1.796 2.671 4.19 2.605 6.738v15.611c0 5.242-4.2 9.507-9.36 9.507-5.161 0-9.361-4.265-9.361-9.507v-.912h-52.13v.912c0 5.242-4.2 9.507-9.361 9.507-5.16 0-9.36-4.265-9.36-9.507v-15.628c0-5.242 4.2-9.507 9.36-9.507 5.161 0 9.361 4.265 9.361 9.507v.13h1.772c-.358-4.398-1.681-7.884-2.82-10.158H1.602V83.867h10.53V73.448h4.421V54.174h56.94zm2.08 66.418v.912c0 2.729 2.158 4.949 4.81 4.949 2.437 0 4.459-1.876 4.768-4.298h-.087v-16.409c0-2.729-2.158-4.949-4.81-4.949-2.653 0-4.811 2.22-4.811 4.949v.13h7.15v14.716h-7.02zm2.47-4.688v-5.6H10.832v5.6h67.211zM9.402 100.927c-2.652 0-4.81 2.22-4.81 4.949v15.628c0 2.682 2.203 4.949 4.81 4.949 2.653 0 4.811-2.22 4.811-4.949v-.781H6.282v-14.717h7.931v-.13c0-2.729-2.158-4.949-4.811-4.949zm59.411-34.902v-7.292H47.232v7.292h21.581zm-47.71 4.559v2.864h47.71v-2.864h-47.71zm0-11.851v7.292h21.579v-7.292H21.103zM6.153 88.425v2.735h8.894c-1.206-1.657-2.193-2.654-2.204-2.665l-.07-.07h-6.62zm58.545 17.451c.853-10.751 6.9-18.111 8.535-19.918v-7.952H16.682v7.952c1.635 1.807 7.683 9.163 8.536 19.918h39.48zM74.86 91.16h8.904v-2.735h-6.621l-.307.261c-.305.304-1.053 1.177-1.976 2.474zm-49.857-11.2c3.297 0 5.979 2.746 5.979 6.121 0 3.375-2.682 6.12-5.979 6.12-3.243 0-5.981-2.803-5.981-6.12 0-3.375 2.682-6.121 5.981-6.121zm0 7.684c.774 0 1.429-.716 1.429-1.563s-.655-1.563-1.429-1.563c-.776 0-1.431.716-1.431 1.563s.655 1.563 1.431 1.563zm31.2 16.409H33.582V82.825h22.621v21.228zm-4.55-16.67H38.132v12.242h13.521V87.383zm13.26-7.162c3.226 0 5.851 2.629 5.851 5.86 0 3.231-2.625 5.861-5.851 5.861s-5.85-2.63-5.85-5.861 2.624-5.86 5.85-5.86zm.13 7.293c.644 0 1.3-.723 1.3-1.433 0-.647-.447-1.302-1.3-1.302-.803 0-1.3.743-1.3 1.432 0 .682.619 1.303 1.3 1.303zm54.511 1.465c.83-.45 1.835-.421 2.634.096.161.099 4.549 2.714 12.46 1.454 1.434-.239 2.731.737 2.956 2.143.224 1.412-.733 2.736-2.14 2.962-5.255.846-9.345.235-12.092-.555v31.586c0 1.428-1.154 2.585-2.58 2.585-1.426 0-2.581-1.157-2.581-2.585V91.248c0-.946.516-1.815 1.343-2.269z"/>
</svg>
