<svg xmlns="http://www.w3.org/2000/svg" width="139" height="152">
    <path fill="#1A1915" fill-rule="evenodd" d="M136.656 62.5c-1.184 0-2.148-.963-2.148-2.146 0-1.184.964-2.148 2.148-2.148 1.185 0 2.149.964 2.149 2.148 0 1.183-.964 2.146-2.149 2.146zm-8.582 33.148c-.407.406-.946.629-1.521.629-.572 0-1.112-.223-1.518-.629l-.142-.142-.141.142c-.814.811-2.227.81-3.039 0-.837-.836-.837-2.198 0-3.036l.143-.141-.143-.141c-.837-.838-.837-2.199 0-3.036l.001-.001c.839-.835 2.2-.834 3.038.001l.141.142.142-.142c.838-.837 2.199-.836 3.038-.001.838.838.838 2.199.001 3.037l-.142.141.142.141c.837.838.837 2.2 0 3.036zm-6.054-68.317c-1.183 0-2.147-.963-2.147-2.147 0-1.184.964-2.147 2.147-2.147 1.185 0 2.15.963 2.15 2.147 0 1.184-.965 2.147-2.15 2.147zm-1.026 22.227h-1.307v4.543c0 1.184-.964 2.146-2.147 2.146h-.591v49.122h1.901v4.294h-1.901v1.268h18.047c1.183 0 2.147.963 2.15 2.146v10.429l-.072.011c-.225.951-1.072 1.649-2.077 1.649h-.278v23.759c0 1.184-.964 2.147-2.148 2.147H91.412c-.16 0-.29-.036-.395-.065l-38.943-.01c-.078.039-.209.075-.37.075h-5.446c-.076.037-.21.075-.374.075H4.716c-1.184 0-2.148-.964-2.148-2.148v-23.757H2.29c-1.184 0-2.148-.964-2.148-2.147v-9.941c0-1.183.964-2.146 2.148-2.146h18.057v-1.269h-1.901v-4.294h1.901V56.399h-.597c-1.183 0-2.147-.964-2.147-2.148v-4.542h-1.307v-4.294h5.337l2.921-2.414L32.08 2.649c.188-1.017 1.075-1.754 2.111-1.754 1.035 0 1.922.737 2.112 1.754l7.523 40.35 2.832 2.34h5.422v4.294h-1.307v4.542c0 1.184-.964 2.147-2.149 2.147h-.589v8.802l19.547-12.269c.693-.436 1.59-.435 2.284-.001l19.397 12.175v-8.782h-.591c-1.185 0-2.149-.962-2.149-2.146v-4.543h-1.306v-4.294h5.421l2.833-2.34 7.524-40.352c.188-1.017 1.076-1.754 2.111-1.754 1.035 0 1.923.738 2.111 1.755l7.524 40.35 2.834 2.341h5.419v4.294zm-1.614 65.667h-2.429v5.646h2.429v-5.646zm6.734 0h-2.439v5.646h2.439v-5.646zm6.734 5.646v-5.646h-2.438v5.646h2.438zm-15.899 25.907h13.472l.001-21.612h-13.473v21.612zM6.878 115.3H4.439v5.646h2.439V115.3zm6.734-.001h-2.439v5.646h2.439v-5.646zm6.733.001h-2.438v5.646h2.438V115.3zm0 9.94H6.865v21.613h13.48V125.24zm4.297 21.613h5.338l.03-6.451c.063-2.21 1.901-3.996 4.176-3.996 2.148 0 3.925 1.622 4.168 3.706h.028l.011.488v6.253h5.344v-12.628H24.642v12.628zm0-16.922h19.095v-20.194H24.642v20.194zm17.07-24.487h2.025v-8.813h-4.135c2.109.364 3.723 2.195 3.723 4.406v2.335c0 .998-.688 1.832-1.613 2.072zm-2.682-4.219v-.188c0-.21-.379-.208-.379 0v.188h.379zm-6.627 4.219h3.565c-.925-.24-1.614-1.074-1.614-2.072v-2.335c0-2.211 1.615-4.042 3.726-4.406h-7.788c2.111.364 3.725 2.195 3.725 4.406v2.335c0 .998-.689 1.832-1.614 2.072zm-2.682-4.219v-.188c0-.207-.379-.208-.379 0v.188h.379zm-5.079 4.219h2.018c-.925-.24-1.613-1.074-1.613-2.072v-2.335c0-2.211 1.614-4.042 3.723-4.406h-4.128v8.813zm0-13.107h19.095V75.312H24.642v17.025zm0-21.32h19.095l-.002-14.962-9.547-7.884-9.546 7.884v14.962zm5.078-32.286l2.424-2.004h-2.052l-.372 2.004zm4.468-23.97l-.658 3.532h1.317l-.659-3.532zm1.459 7.825h-2.919l-.516 2.777h3.955l-.52-2.777zm1.32 7.072H31.41l-.519 2.775h6.593l-.517-2.775zm1.32 7.069h-2.054l2.427 2.004-.373-2.004zm8.188 12.908h-.588c-.116 0-.206-.026-.266-.043-.153-.023-.298-.042-.458-.099-.136-.05-.249-.116-.366-.188-.11-.054-.197-.093-.286-.167l-10.323-8.529-10.123 8.364c-.359.45-.942.735-1.577.735l-.003-.487v.487h-.588v2.397h.591c.063 0 .122.007.174.016l10.159-8.39c.793-.655 1.944-.657 2.736.001l10.084 8.326c.082-.018.158-.028.243-.028h.591v-2.395zm18.116 93.454h8.141v-9.209c-.293-1.974-1.98-3.467-4.005-3.467-2.246 0-4.074 1.827-4.074 4.072v.488h-.064l.002 8.116zm-16.558 3.614h1.522v-4.894c0-1.192-.578-2.292-1.522-2.973v7.867zm41.228-69.482l-1.797-1.128c-.485-.303-.824-.778-.952-1.336-.128-.56-.031-1.136.275-1.622.533-.846 1.558-1.196 2.474-.903v-2.133l-20.54-12.892-20.686 12.987v2.091c.406-.163.851-.199 1.281-.102.56.128 1.037.466 1.341.953.305.484.403 1.059.275 1.619s-.467 1.035-.953 1.339l-1.805 1.132v13.449l19.407-12.18c.693-.435 1.59-.434 2.283 0l19.397 12.176v-13.45zm0 32.442H87.36v-4.294h1.901v-9.628l-20.54-12.892-20.688 12.985v9.61l1.901.002v4.293h-1.901v8.897h41.228v-8.973zm0 13.266H48.033v11.226c3.445.962 5.818 4.055 5.818 7.654v4.894h6.44v-12.928h.112c.362-4.329 3.931-7.654 8.322-7.654 4.611 0 8.363 3.753 8.363 8.366v.488h-.063v11.728h6.44v-4.969c0-3.587 2.365-6.678 5.796-7.646v-11.159zm0 15.85c-.929.684-1.5 1.777-1.5 2.955v4.969h1.5v-7.924zm23.392-29.117H93.558v20.194h19.086l.009-20.194zM93.558 75.239l.008 17.023h19.087V75.239H93.558zm19.093-4.297V55.978l-9.546-7.883-9.547 7.883v14.964h19.093zM97.7 96.556h-4.142v8.811h2.014c-.922-.242-1.607-1.074-1.607-2.07v-2.335c0-2.214 1.62-4.047 3.735-4.406zm.559 4.406v.189h.377v-.189c0-.204-.377-.205-.377 0zm3.069 4.405h3.552c-.921-.242-1.607-1.074-1.607-2.07v-2.335c0-2.214 1.621-4.047 3.736-4.406h-7.812c2.115.359 3.736 2.191 3.737 4.406v2.335c0 .996-.685 1.828-1.606 2.07zm6.241-4.405v.189h.379v-.189c0-.204-.379-.205-.379 0zm.937-4.406c2.117.359 3.737 2.192 3.737 4.406v2.335c0 .996-.685 1.828-1.607 2.07h2.017v-8.811h-4.147zM93.579 146.78h5.315l.034-6.459c.068-2.206 1.906-3.988 4.175-3.988 2.176 0 3.97 1.663 4.175 3.786l.031.005v6.656h5.334v-12.628H93.557l.022 12.628zm5.057-108.124l2.425-2.004h-2.053l-.372 2.004zm4.47-23.973l-.659 3.535h1.318l-.659-3.535zm1.458 7.83h-2.919l-.517 2.776h3.955l-.519-2.776zm1.321 7.07h-5.557l-.518 2.777h6.592l-.517-2.777zm1.318 7.069h-2.052l2.426 2.003-.374-2.003zm8.19 12.908h-.588c-.116 0-.205-.024-.262-.041-.176-.028-.313-.047-.464-.1-.144-.052-.253-.119-.35-.179-.128-.066-.211-.103-.295-.171l-10.329-8.535-10.327 8.53c-.095.08-.192.128-.264.163l-.109.061c-.068.043-.138.084-.216.114-.262.104-.523.156-.778.156l-.004-.487.001.487-.587.001v2.396h.592c.09 0 .172.011.244.027l10.083-8.325c.397-.329.883-.492 1.368-.492.487 0 .973.163 1.37.492l10.08 8.325c.082-.017.159-.027.244-.027h.591V49.56zm-12.299 4.866c2.18 0 3.977 1.669 4.178 3.795l.028.005v8.719c0 1.183-.964 2.147-2.148 2.147h-4.118c-1.184 0-2.148-.964-2.148-2.147l.031-8.521c.062-2.211 1.9-3.998 4.177-3.998zm2.068 36.656h-4.117c-1.184 0-2.15-.962-2.151-2.145l.034-8.532c.068-2.205 1.906-3.987 4.175-3.987 2.148 0 3.925 1.621 4.168 3.705h.028l.011.488v8.323c0 1.184-.964 2.148-2.148 2.148zm-2.059 21.344c2.148 0 3.925 1.623 4.168 3.707h.028l.011.487v8.324c0 1.184-.964 2.147-2.148 2.147h-4.117c-1.186 0-2.15-.963-2.15-2.147l-.001-8.394.034-.135c.068-2.206 1.906-3.989 4.175-3.989zM68.721 92.223c6.153 0 11.157 5.002 11.157 11.149 0 6.148-5.004 11.15-11.157 11.15-6.152 0-11.157-5.002-11.157-11.15 0-6.147 5.005-11.149 11.157-11.149zm0 18.007c3.783 0 6.86-3.076 6.86-6.856s-3.077-6.856-6.86-6.856c-3.782 0-6.86 3.076-6.86 6.856s3.078 6.856 6.86 6.856zm0-12.589c3.163 0 5.735 2.571 5.735 5.731 0 3.16-2.572 5.732-5.735 5.732-3.162 0-5.734-2.572-5.734-5.732s2.572-5.731 5.734-5.731zm0 7.17c.794 0 1.439-.644 1.439-1.437s-.645-1.437-1.439-1.437c-.792 0-1.438.644-1.438 1.437s.646 1.437 1.438 1.437zm-2.148-37.333h4.296v8.172h-4.296v-8.172zm2.148-3.147l-1.67 1.047c-.347.219-.739.331-1.139.331-.159 0-.319-.018-.479-.054-.56-.127-1.037-.467-1.343-.954-.306-.484-.404-1.061-.275-1.62.128-.559.467-1.034.952-1.339l2.814-1.763c.693-.436 1.59-.437 2.283 0l2.812 1.763c.485.305.825.779.953 1.338s.03 1.135-.276 1.621c-.609.971-1.99 1.287-2.963.677l-1.669-1.047zm7.824 14.88h-4.297v-8.172h4.297v8.172zm5.674 3.561h-4.297V74.6h4.297v8.172zM76.084 68.95v.001c-.486-.305-.824-.781-.952-1.341-.128-.559-.03-1.134.275-1.619.306-.487.784-.825 1.345-.953.56-.123 1.134-.027 1.616.277l5.691 3.572c.485.303.824.778.953 1.336.128.56.03 1.136-.276 1.622-.396.63-1.077 1.005-1.821 1.005-.406 0-.799-.113-1.142-.328l-5.689-3.572zm11.808 17.384h-4.295v-8.172h4.295v8.172zM61.361 68.951l-5.692 3.571c-.339.215-.734.328-1.14.328-.747 0-1.428-.376-1.82-1.006-.305-.484-.403-1.059-.275-1.619.129-.56.468-1.035.953-1.339l5.69-3.57c.485-.305 1.061-.402 1.621-.274.559.127 1.035.464 1.34.949.306.486.404 1.061.276 1.621-.129.56-.468 1.035-.953 1.339zm-7.514 17.383H49.55v-8.172h4.297v8.172zm5.675-3.562h-4.297V74.6h4.297v8.172zm5.673-3.561H60.9v-8.172h4.295v8.172zM38.344 58.206h.028l.013.488v8.324c0 1.183-.965 2.147-2.15 2.147h-4.117c-1.184 0-2.148-.964-2.148-2.147l.024-8.496c.093-2.259 1.92-4.021 4.182-4.021 2.148 0 3.925 1.622 4.168 3.705zm-2.099 32.952h-4.117c-1.184 0-2.148-.963-2.148-2.147l.03-8.523c.063-2.209 1.901-3.996 4.176-3.996 2.148 0 3.925 1.622 4.168 3.706h.039v8.813c0 1.184-.964 2.147-2.148 2.147zm0 36.007h-4.117c-1.184 0-2.148-.963-2.148-2.146l.03-8.522c.063-2.21 1.901-3.996 4.176-3.996 2.148 0 3.925 1.623 4.168 3.707h.028l.011.487v8.324c0 1.183-.964 2.146-2.148 2.146zm-22.64 2.064c1.12 0 2.173.437 2.965 1.23.677.676 1.095 1.543 1.202 2.477h.028l.011.488v8.323c0 1.184-.964 2.148-2.149 2.148h-4.118c-1.184 0-2.148-.964-2.148-2.148l.032-8.522c.062-2.21 1.902-3.996 4.177-3.996zm112.136 14.591h-4.118c-1.184 0-2.149-.964-2.151-2.148l.04-8.812c.243-2.083 2.019-3.706 4.167-3.706 2.276 0 4.116 1.787 4.187 4.067l.022.128v8.324c0 1.184-.964 2.147-2.147 2.147zM82.05 15.595c-.407.405-.946.629-1.519.629-.576 0-1.114-.224-1.519-.63l-.141-.141-.144.142c-.805.809-2.223.812-3.036 0-.406-.404-.629-.944-.629-1.517s.223-1.113.628-1.519l.143-.142-.143-.141c-.837-.837-.837-2.199 0-3.036.838-.836 2.2-.836 3.039 0l.142.142.141-.142c.838-.836 2.2-.836 3.038 0 .837.837.837 2.199 0 3.036l-.142.141.142.142c.837.837.837 2.199 0 3.036zM71.194 47.532c-1.185 0-2.149-.964-2.149-2.147 0-1.184.964-2.146 2.149-2.146 1.184 0 2.148.962 2.148 2.146 0 1.183-.964 2.147-2.148 2.147zM48.74 29.658c-1.185 0-2.149-.963-2.149-2.147 0-1.184.964-2.148 2.149-2.148 1.183 0 2.147.964 2.147 2.148 0 1.184-.964 2.147-2.147 2.147zm-32.588 64.9c0 1.184-.964 2.148-2.149 2.148-1.184 0-2.148-.964-2.148-2.148 0-1.183.964-2.146 2.148-2.146 1.185 0 2.149.963 2.149 2.146zM1.537 53.396c.838-.837 2.2-.837 3.038 0l.141.141.141-.141c.841-.837 2.202-.836 3.038-.001.407.406.63.944.63 1.518 0 .573-.223 1.112-.629 1.519l-.142.141.142.142c.837.836.837 2.199 0 3.036-.406.406-.946.629-1.519.629-.574 0-1.114-.223-1.52-.629l-.141-.142-.141.142c-.813.811-2.225.811-3.038 0-.837-.837-.837-2.2 0-3.036l.142-.142-.142-.141c-.837-.837-.837-2.199 0-3.036zm9.686-24.406C5.113 28.99.142 24.022.142 17.917c0-6.106 4.971-11.074 11.081-11.074 6.109 0 11.079 4.968 11.079 11.074 0 6.105-4.97 11.073-11.079 11.073zm6.782-11.074c0-3.74-3.043-6.782-6.782-6.782-3.741 0-6.784 3.042-6.784 6.782 0 3.738 3.043 6.779 6.784 6.779 3.739 0 6.782-3.041 6.782-6.779z"/>
</svg>
