<svg xmlns="http://www.w3.org/2000/svg" width="34" height="30">
    <path fill="#E7DEB0" fill-opacity="0" fill-rule="evenodd" d="M0 0h33.999v30H0V0z"/>
    <path fill="#646152" fill-rule="evenodd" d="M33.289 6.747a4.275 4.275 0 00-3.006-3.031C27.632 3 17 3 17 3S6.368 3 3.716 3.716A4.275 4.275 0 00.71 6.747C0 9.421 0 14.999 0 14.999s0 5.579.71 8.253a4.275 4.275 0 003.006 3.031C6.368 27 17 27 17 27s10.632 0 13.283-.717a4.275 4.275 0 003.006-3.031C34 20.578 34 14.999 34 14.999s0-5.578-.711-8.252zM13.6 20.142V9.857L22.433 15 13.6 20.142z"/>
</svg>
