<svg xmlns="http://www.w3.org/2000/svg" width="28" height="24">
    <path fill="#FF3737" fill-opacity="0" fill-rule="evenodd" d="M0 0h28v24H0V0z"/>
    <path fill="#FFF" fill-rule="evenodd" d="M27.415 5.122a3.543 3.543 0 00-2.476-2.525C22.756 1.999 14 1.999 14 1.999s-8.756 0-10.94.598A3.544 3.544 0 00.585 5.122C0 7.351 0 11.999 0 11.999s0 4.65.585 6.878a3.545 3.545 0 002.475 2.526c2.184.596 10.94.596 10.94.596s8.756 0 10.939-.596a3.545 3.545 0 002.476-2.526C28 16.649 28 11.999 28 11.999s0-4.648-.585-6.877zM11.2 16.286V7.714L18.474 12 11.2 16.286z"/>
</svg>
