<svg xmlns="http://www.w3.org/2000/svg" width="132" height="122">
    <path fill="#FFD839" fill-opacity="0" fill-rule="evenodd" d="M0 0h132v121.999H0V0z"/>
    <path fill="#1A1915" fill-rule="evenodd" d="M125.035 93.469c-.086 2.487-1.686 7.646-7.078 8.715-.145.03-1.912.045-1.912.045l3.822 15.257c.306 1.208-.431 2.432-1.646 2.735-.182.046-.366.07-.548.07-1.015 0-1.938-.684-2.191-1.711l-4.109-16.398c-.185.01-16.321.047-16.321.047v14.235c-.191 2.057-1.812 5.527-6.669 5.527-4.463 0-6.426-3.273-6.842-5-.042-.174-.061-.351-.061-.528v-16.355c-.262-2.344.284-6.094 2.929-9.167H44.904c2.613 3.084 3.015 6.849 2.642 9.222 0 0-.019 16.653-.064 16.827-.415 1.727-2.379 4.999-6.841 4.999-4.857 0-6.482-3.469-6.658-5.308l-.01-14.452s-17.561-.01-17.68-.029c-.309-.052-.566-.151-.856-.22l-4.156 16.6c-.257 1.026-1.179 1.711-2.192 1.711-.179 0-.367-.024-.549-.07-1.213-.302-1.95-1.527-1.646-2.735l4.377-17.471c-2.502-1.989-3.576-4.767-3.775-6.455L5.01 67.448c-.12-1.24.795-2.341 2.037-2.461 1.249-.154 2.347.794 2.468 2.035l2.482 26.064c.047.323.649 3.622 4.493 4.527-.816-1.952-.866-3.824-.863-4.115l-.023-17.615c.029-.47.565-7.173 4.349-11.266-3.639-3.389-5.837-8.158-5.837-13.294 0-10.031 8.18-18.189 18.231-18.189 10.052 0 18.228 8.158 18.228 18.189 0 7.721-4.868 14.528-12.017 17.106l1.583 8.969H50.75c.36 0 .715.086 1.035.25 1.269.653 3.424 2.763 3.424 6.525 0 .829-.119 1.577-.307 2.257h22.099c-.18-.677-.3-1.42-.3-2.257 0-3.821 2.763-6.062 3.077-6.306.398-.304.883-.469 1.383-.469h12.938l1.992-9.301c-6.69-2.791-11.187-9.356-11.187-16.774 0-10.031 8.175-18.189 18.227-18.189 10.053 0 18.228 8.158 18.228 18.189 0 5.899-2.894 11.318-7.559 14.697 3.582 3.78 4.677 9.16 4.725 9.432.027.138.042.287.042.43l-.023 17.625c.003.28-.044 2.106-.833 4.033 2.623-1.001 2.805-4.286 2.807-4.319l1.973-26.153c.094-1.244 1.213-2.167 2.424-2.082 1.249.093 2.182 1.177 2.089 2.42l-1.969 26.063zM49.966 81.913H38.238c-1.097 0-2.035-.786-2.226-1.865L33.73 67.14c-.218-1.228.604-2.4 1.833-2.615.112-.019.22.009.33.006 2.372-.63 4.44-1.877 6.097-3.525-1.479-.122-3.059-.601-4.633-1.728-1.015-.728-1.248-2.136-.519-3.151.73-1.014 2.142-1.246 3.156-.518 2.439 1.741 4.648.606 5.298.196.345-.991.53-2.038.64-3.103-.759-.44-1.295-1.224-1.295-2.161 0-.859.458-1.58 1.113-2.041-1.305-6.189-6.821-10.855-13.407-10.855-7.559 0-13.705 6.135-13.705 13.674 0 5.401 3.195 10.309 8.14 12.5 1.141.508 1.654 1.84 1.149 2.983-.505 1.138-1.842 1.657-2.988 1.146-.429-.188-.821-.438-1.23-.657-2.551 2.259-3.462 6.979-3.592 8.747l.028 17.462c.008.7.189 4.213 3.193 4.213h12.894c1.251 0 2.261 1.009 2.261 2.258v16.304c.111.489.547 1.2 2.146 1.2 1.582 0 2.173-.882 2.378-1.372 0 0 .012-16.399.037-16.536.113-.668.867-6.653-6.762-8.624h-4.929c-.883 0-1.688-.514-2.055-1.317l-4.252-9.269c-.518-1.134-.021-2.475 1.116-2.994 1.139-.521 2.478-.02 2.997 1.112l3.648 7.955H49.944c.312-.366.736-1.081.736-2.257 0-1.225-.407-1.913-.714-2.26zm59.34-13.828c-.743-.109-1.431-.544-1.76-1.282-.504-1.143.005-2.475 1.149-2.983 4.946-2.194 8.141-7.102 8.141-12.503 0-7.539-6.15-13.675-13.706-13.675-6.587 0-12.099 4.667-13.41 10.856.658.46 1.116 1.183 1.116 2.04 0 .938-.537 1.722-1.294 2.161.11 1.069.295 2.117.641 3.106.715.452 2.893 1.521 5.293-.198 1.017-.728 2.431-.497 3.161.517.728 1.016.494 2.423-.521 3.151-1.575 1.127-3.152 1.608-4.634 1.729 1.68 1.665 3.78 2.932 6.19 3.554 1.209.315 1.937 1.546 1.622 2.753-.109.415-.343.753-.63 1.029l-2.525 11.783c-.223 1.043-1.146 1.787-2.211 1.787H82.091c-.38.47-.869 1.267-.868 2.257 0 1.219.403 1.906.702 2.257h19.42l3.647-7.954c.517-1.133 1.854-1.633 2.997-1.112 1.138.518 1.635 1.86 1.115 2.994l-4.252 9.268c-.367.803-1.171 1.318-2.054 1.318h-9.797c-7.556 1.955-7.098 8.059-7.016 8.759.01.083.016 16.41.016 16.41.191.458.777 1.362 2.381 1.362 1.979 0 2.142-1.102 2.157-1.226l-.01-16.273c0-1.25 1.009-2.259 2.26-2.259h18.039c1.129 0 1.661-.404 1.967-.707 1.022-1.027 1.227-3.018 1.224-3.498l.023-17.388c-.235-1.002-1.511-5.766-4.736-8.033zm-12.23-15.007c-1.405 0-2.544-1.137-2.544-2.539 0-1.402 1.139-2.538 2.544-2.538s2.544 1.136 2.544 2.538-1.139 2.539-2.544 2.539zm-58.677-5.077c1.405 0 2.544 1.136 2.544 2.538s-1.139 2.539-2.544 2.539-2.543-1.137-2.543-2.539c0-1.402 1.138-2.538 2.543-2.538zm24.69-31.811c-1.248 0-2.261-1.009-2.261-2.258 0-1.248 1.013-2.257 2.261-2.257h2.265c1.249 0 2.263 1.009 2.263 2.257 0 1.251-1.014 2.258-2.263 2.258h-2.265zm9.223 0c-1.25 0-2.264-1.009-2.264-2.258 0-1.248 1.014-2.257 2.264-2.257h3.48c1.248 0 2.263 1.009 2.263 2.257 0 1.251-1.015 2.258-2.263 2.258h-3.48zm8.172-2.258c0-1.248 1.012-2.257 2.264-2.257h2.261c1.252 0 2.262 1.009 2.262 2.257 0 1.249-1.01 2.258-2.262 2.258h-2.261c-1.252 0-2.264-1.009-2.264-2.258zm-21.628 38.63h6.786c1.252 0 2.264 1.008 2.264 2.258 0 1.248-1.012 2.256-2.264 2.256h-6.786c-1.252 0-2.262-1.008-2.262-2.256 0-1.251 1.012-2.258 2.262-2.258zm0-9.031H74.69c1.251 0 2.263 1.008 2.263 2.256 0 1.249-1.012 2.258-2.261 2.258H58.856c-1.252 0-2.262-1.009-2.262-2.258 0-1.248 1.012-2.256 2.262-2.256zM89.032 27.37H85.88c-1.251 0-2.263-1.008-2.263-2.257s1.012-2.257 2.263-2.257h3.152c1.87 0 3.395-1.521 3.395-3.391V7.896c0-1.867-1.523-3.386-3.395-3.386H58.337c-1.875 0-3.399 1.517-3.399 3.386v11.568c0 1.87 1.524 3.39 3.399 3.39H73.82c.561 0 1.106.21 1.52.587l7.861 7.145c.925.84.993 2.267.15 3.188-.444.492-1.058.739-1.67.739-.544 0-1.093-.192-1.525-.59l-7.214-6.553H58.337c-4.368 0-7.922-3.543-7.922-7.905V7.896c0-4.356 3.553-7.903 7.922-7.903h30.695c4.367 0 7.923 3.547 7.923 7.903v11.569c0 4.362-3.556 7.905-7.923 7.905zm-47.789-.833c-.409.76-1.187 1.191-1.993 1.191-.362 0-.73-.088-1.069-.27-1.102-.589-1.513-1.959-.923-3.06l3.04-5.644c.592-1.096 1.969-1.51 3.063-.917 1.103.59 1.513 1.959.922 3.056l-3.04 5.644zm-16.319-1.066c-1.253 0-2.262-1.011-2.262-2.258v-9.032c0-1.246 1.009-2.257 2.262-2.257 1.251 0 2.261 1.011 2.261 2.257v9.032c0 1.25-1.01 2.258-2.261 2.258zm-5.796 1.834c-.398.287-.862.426-1.315.426-.707 0-1.4-.329-1.841-.944l-4.058-5.645c-.729-1.013-.494-2.424.519-3.149 1.018-.732 2.43-.494 3.16.519l4.054 5.644c.73 1.014.498 2.424-.519 3.149z"/>
</svg>
